# xmcd
#
# Track frame offsets:
#	150
#	11437
#	25487
#	38835
#	50687
#	61185
#	80085
#	94510
#	111737
#	130467
#	142517
#	155957
#	167700
#	186380
#	197280
#	207702
#	220585
#	229975
#	241507
#	256157
#	271382
#
# Disc length: 3788 seconds
#
# Revision: 2
# Processed by: cddbd v1.5.2PL0 Copyright (c) Steve Scherf et al.
# Submitted via: EasyCDDAExtractor 10.0.2.1
#
DISCID=2c0eca15
DTITLE=Various Artist - A Celebration of Country and Pop Music- disc.3
DYEAR=1900
DGENRE=Country
TTITLE0=Elvis Presley and Jordanaires - You Don't Know Me
TTITLE1=Ferlin Husky - Roses Are Red (My Love)
TTITLE2=Kay Starr - Crazy
TTITLE3=Perry Como - Most Beautiful Girl
TTITLE4=Teresa Brewer - Walking the Floor Over You
TTITLE5=Ronnie Milsap - Since I Don't Have You
TTITLE6=Brenda Lee - You'll Never Know
TTITLE7=Merle Haggard - It's All in the Game
TTITLE8=Kay Starr  - I Really Don't Want to Know
TTITLE9=Brook Benton - He'll Have to Go
TTITLE10=Statler Bros. - Only You
TTITLE11=Mills Bros. - End of the World
TTITLE12=Kenny Rogers and First Edition - I Believe In Music
TTITLE13=Jim Ed Brown - Wayward Wind
TTITLE14=Andrews Srs. - Ragtime Cowboy Joe
TTITLE15=Asleep @ Wheel - Route 66
TTITLE16=Bare and Davis - True Love
TTITLE17=Ames Bros. and Winterhalter - Jambalaya
TTITLE18=Oak Ridge Boys - Dream On
TTITLE19=Waylon and Willie - Dock of the Bay
TTITLE20=Nitty Gritty Dirt Band - Battle of New Orleans
EXTD=
EXTT0=
EXTT1=
EXTT2=
EXTT3=
EXTT4=
EXTT5=
EXTT6=
EXTT7=
EXTT8=
EXTT9=
EXTT10=
EXTT11=
EXTT12=
EXTT13=
EXTT14=
EXTT15=
EXTT16=
EXTT17=
EXTT18=
EXTT19=
EXTT20=
PLAYORDER=
